HIERARCHY
ROOT hip
{
	OFFSET 0.000000 0.000000 0.000000 
	CHANNELS 6 Xposition Yposition Zposition Xrotation Zrotation Yrotation
	JOINT abdomen
	{
		OFFSET 0.000000 3.402643 0.000000 
		CHANNELS 3 Xrotation Zrotation Yrotation
		JOINT chest
		{
			OFFSET 0.000000 8.438565 -0.680529 
			CHANNELS 3 Xrotation Zrotation Yrotation
			JOINT neck
			{
				OFFSET 0.000000 10.207942 -0.272212 
				CHANNELS 3 Xrotation Zrotation Yrotation
				JOINT head
				{
					OFFSET 0.000000 3.130431 0.000000 
					CHANNELS 3 Xrotation Zrotation Yrotation
					End Site
					{
						OFFSET 0.000000 3.130435 0.000000 
					}
				}
			}
			JOINT lCollar
			{
				OFFSET 3.470700 6.669187 -0.816635 
				CHANNELS 3 Yrotation Zrotation Xrotation
				JOINT lShldr
				{
					OFFSET 3.198488 0.000000 0.000000 
					CHANNELS 3 Zrotation Yrotation Xrotation
					JOINT lForeArm
					{
						OFFSET 10.139888 0.000000 0.000000 
						CHANNELS 3 Yrotation Zrotation Xrotation
						JOINT lHand
						{
							OFFSET 8.370511 0.000000 0.000000 
							CHANNELS 3 Zrotation Yrotation Xrotation
							End Site
							{
								OFFSET 4.083176 0.000000 0.000000 
							}
						}
					}
				}
			}
			JOINT rCollar
			{
				OFFSET -3.470700 6.669187 -0.816635 
				CHANNELS 3 Yrotation Zrotation Xrotation
				JOINT rShldr
				{
					OFFSET -3.198488 0.000000 0.000000 
					CHANNELS 3 Zrotation Yrotation Xrotation
					JOINT rForeArm
					{
						OFFSET -10.139888 0.000000 0.000000 
						CHANNELS 3 Yrotation Zrotation Xrotation
						JOINT rHand
						{
							OFFSET -8.370511 0.000000 0.000000 
							CHANNELS 3 Zrotation Yrotation Xrotation
							End Site
							{
								OFFSET -4.083176 0.000000 0.000000 
							}
						}
					}
				}
			}
		}
	}
	JOINT lThigh
	{
		OFFSET 5.308129 -1.633274 1.361059 
		CHANNELS 3 Xrotation Zrotation Yrotation
		JOINT lShin
		{
			OFFSET -2.041588 -20.007561 0.000000 
			CHANNELS 3 Xrotation Zrotation Yrotation
			JOINT lFoot
			{
				OFFSET 0.000000 -19.190928 -1.224953 
				CHANNELS 3 Xrotation Yrotation Zrotation
				End Site
				{
					OFFSET 0.000000 -2.449906 4.627600 
				}
			}
		}
	}
	JOINT rThigh
	{
		OFFSET -5.308129 -1.633274 1.361059 
		CHANNELS 3 Xrotation Zrotation Yrotation
		JOINT rShin
		{
			OFFSET 2.041588 -20.007561 0.000000 
			CHANNELS 3 Xrotation Zrotation Yrotation
			JOINT rFoot
			{
				OFFSET 0.000000 -19.190928 -1.224953 
				CHANNELS 3 Xrotation Yrotation Zrotation
				End Site
				{
					OFFSET 0.000000 -2.449906 4.627600 
				}
			}
		}
	}
}
MOTION
Frames: 11
Frame Time: 0.016667
-2.680254 46.002357 -7.299804 -10.758393 4.643850 -10.109326 0.000000 0.000000 0.000000 12.482828 -7.200606 -0.750556 20.349995 -0.743628 -1.735017 -9.273710 7.233239 1.228402 6.860328 -25.000000 1.704068 -57.711170 3.168137 -4.921098 -16.554585 -1.442674 17.140406 -4.919911 0.249911 15.423108 6.228992 24.027584 -0.169744 58.645691 -2.948589 0.944961 7.908976 -0.979095 18.534840 10.388009 5.412096 9.354650 6.844748 -0.566084 4.723224 6.655061 -2.351294 8.317361 -2.170871 3.943969 -1.731963 -1.601609 -21.900715 -5.673145 15.003136 -0.353325 -1.456272 -3.244073 5.372228 14.648045 
-2.680265 46.002571 -7.298894 -10.748596 4.644001 -10.108536 0.000000 0.000000 0.000000 12.482030 -7.172001 -0.763800 20.320629 -0.749266 -1.757069 -9.382398 7.116479 1.123775 6.835672 -25.000000 1.667541 -57.700592 3.187174 -4.910164 -16.297197 -1.440585 17.277597 -4.883711 0.150386 15.406591 6.213759 24.009010 -0.159403 58.644211 -2.918219 0.962722 7.908976 -0.979095 18.534840 10.389252 5.402627 9.352602 6.825244 -0.566176 4.724667 6.655061 -2.351296 8.317362 -2.169909 3.944617 -1.731659 -1.621283 -21.909533 -5.661244 15.003719 -0.343540 -1.464889 -3.253998 5.378297 14.651482 
-2.680174 46.002754 -7.297986 -10.729151 4.653895 -10.108765 0.000000 0.000000 0.000000 12.472191 -7.172272 -0.772347 20.339916 -0.749018 -1.808747 -9.451478 7.058135 1.104005 6.789470 -25.000000 1.632705 -57.732288 3.217845 -4.938608 -16.248642 -1.419822 17.275578 -4.879467 0.262428 15.362494 6.213288 23.999302 -0.158437 58.644211 -2.918219 0.962722 7.908976 -0.979095 18.534840 10.391471 5.391226 9.360992 6.825244 -0.566175 4.724667 6.644326 -2.351059 8.308208 -2.171661 3.965934 -1.723183 -1.650841 -21.907684 -5.647544 15.003719 -0.343545 -1.464889 -3.246795 5.371195 14.647663 
-2.678751 46.002544 -7.297440 -10.719354 4.654045 -10.098207 0.000000 0.000000 0.000000 12.471926 -7.162736 -0.789784 20.417515 -0.755548 -1.925829 -9.677910 7.019753 0.937620 6.769661 -25.000000 1.609784 -57.772186 3.247541 -4.947855 -16.033953 -1.404253 17.284187 -4.776280 0.180464 15.335670 6.207193 23.971231 -0.142855 58.652500 -2.887834 0.980237 7.908976 -0.979095 18.534840 10.396889 5.366490 9.385462 6.813779 -0.575691 4.704613 6.633984 -2.350705 8.308813 -2.173081 3.964995 -1.723606 -1.670528 -21.917919 -5.615887 15.015388 -0.324116 -1.501267 -3.245468 5.381401 14.651806 
-2.677761 46.002483 -7.296733 -10.699908 4.663941 -10.098428 0.000000 0.000000 0.000000 12.452249 -7.163274 -0.787349 20.436840 -0.757145 -1.967948 -9.746812 7.010170 0.899764 6.769661 -25.000000 1.609784 -57.850376 3.286460 -4.947874 -15.997428 -1.336285 17.300556 -4.820431 0.241347 15.230165 6.197591 23.971012 -0.143171 58.652500 -2.887834 0.980237 7.908976 -0.979095 18.534840 10.398840 5.362622 9.404509 6.804027 -0.575735 4.705335 6.629391 -2.363097 8.318579 -2.175929 3.937185 -1.724360 -1.689525 -21.926743 -5.603823 15.016893 -0.304529 -1.528239 -3.251664 5.379179 14.650894 
-2.675013 46.001907 -7.296440 -10.680463 4.673837 -10.098642 0.000000 0.000000 0.000000 12.432570 -7.163811 -0.784913 20.426420 -0.738662 -2.063642 -9.786435 6.902870 0.746332 6.737770 -25.000000 1.578432 -57.920399 3.297091 -4.969108 -15.845776 -1.367517 17.226103 -4.797895 0.212585 15.267570 6.187754 23.963408 -0.120813 58.672050 -2.897552 0.980309 7.928881 -0.988072 18.534740 10.443027 5.364394 9.473980 6.793205 -0.585360 4.695080 6.605461 -2.370616 8.319471 -2.179215 3.976593 -1.697471 -1.709193 -21.947468 -5.562799 15.027584 -0.294723 -1.546240 -3.247167 5.380821 14.651546 
-2.675243 46.002106 -7.295824 -10.670665 4.673987 -10.097847 0.000000 0.000000 0.000000 12.422732 -7.164079 -0.783696 20.426420 -0.738662 -2.063642 -9.825853 6.873672 0.711765 6.727009 -25.000000 1.576862 -57.979046 3.336030 -4.968644 -15.845918 -1.377475 17.233929 -4.860283 0.250367 15.206130 6.187285 23.953699 -0.119850 58.681084 -2.896975 0.990279 7.939112 -0.987288 18.544153 10.463032 5.372913 9.495008 6.781058 -0.594174 4.665314 6.608702 -2.393074 8.367285 -2.177950 3.956025 -1.674101 -1.719050 -21.947311 -5.551645 15.027584 -0.294720 -1.546240 -3.244943 5.368342 14.656888 
-2.673618 46.002033 -7.294461 -10.641421 4.684034 -10.097255 0.000000 0.000000 0.000000 12.393480 -7.174421 -0.782123 20.416176 -0.725745 -2.130573 -9.924342 6.815310 0.699026 6.727009 -25.000000 1.576862 -58.036888 3.403747 -4.956428 -15.794749 -1.482609 17.245796 -4.837745 0.221605 15.243536 6.187285 23.953699 -0.119850 58.670574 -2.925678 1.001933 7.969321 -0.985340 18.562817 10.460381 5.371187 9.454865 6.739362 -0.593993 4.629034 6.603018 -2.408265 8.376442 -2.169956 3.975924 -1.676990 -1.758397 -21.965488 -5.517919 15.029269 -0.285056 -1.584042 -3.238084 5.390140 14.664911 
-2.673061 46.002148 -7.293376 -10.621975 4.693933 -10.097454 0.000000 0.000000 0.000000 12.373801 -7.174956 -0.779684 20.415970 -0.720180 -2.159336 -9.924342 6.815310 0.718557 6.727009 -25.000000 1.576862 -58.143623 3.471396 -4.946005 -15.835522 -1.435796 17.252378 -4.964074 0.243299 15.332234 6.182601 23.954750 -0.111136 58.659325 -2.944070 1.022746 7.998562 -0.984196 18.561819 10.459406 5.373122 9.445343 6.710335 -0.603838 4.639833 6.602743 -2.408104 8.366693 -2.173703 3.981255 -1.664480 -1.787281 -21.982355 -5.515100 15.030187 -0.275435 -1.602463 -3.246137 5.394626 14.646630 
-2.670932 46.001816 -7.292659 -10.602528 4.703830 -10.097644 0.000000 0.000000 0.000000 12.344285 -7.175758 -0.785790 20.406065 -0.716538 -2.178330 -9.973577 6.786119 0.712262 6.727009 -25.000000 1.576862 -58.250359 3.529286 -4.936066 -15.766065 -1.521683 17.279409 -4.951325 0.207711 15.390619 6.187984 23.965734 -0.099102 58.650288 -2.954396 1.013832 8.010174 -0.992347 18.591307 10.467374 5.370920 9.413774 6.689482 -0.603746 4.621697 6.603294 -2.408428 8.386190 -2.173948 3.969895 -1.669049 -1.816878 -21.982515 -5.471749 15.041143 -0.246499 -1.618258 -3.252041 5.384993 14.664747 
-2.671075 46.001999 -7.291993 -10.592731 4.703980 -10.096844 0.000000 0.000000 0.000000 12.334708 -7.185565 -0.786642 20.406065 -0.716538 -2.178330 -9.973577 6.786119 0.712262 6.727009 -25.000000 1.576862 -58.299244 3.529216 -4.937288 -15.726847 -1.540191 17.288401 -4.991623 0.200577 15.430080 6.198054 23.975674 -0.099750 58.649551 -2.963584 1.024116 8.028699 -0.992389 18.571154 10.480219 5.359045 9.431647 6.677157 -0.614437 4.591872 6.615160 -2.409344 8.434340 -2.167903 3.962677 -1.672383 -1.836577 -21.981388 -5.459303 15.041007 -0.255845 -1.619336 -3.253073 5.374898 14.660641 
